# xmcd
#
# Track frame offsets: 
#        150
#        21534
#        36889
#        56589
#        74318
#        93776
#        106362
#        136523
#        154082
#        161988
#        175162
#        182420
#        195973
#        210360
#        229594
#        244890
#        260152
#        269284
#        280668
#        296289
#        316066
#        329146
#        338095
#
# Disc length: 4758 seconds
#
# Revision: 0
# Processed by: cddbd v1.5.2PL0 Copyright (c) Steve Scherf et al.
# Submitted via: ExactAudioCopy v0.99pb4
#
DISCID=45129417
DTITLE=Joe Budden - Mood Muzik (The Worst of Joe Budden)
DYEAR=2004
DGENRE=Hip-Hop
TTITLE0=I Want You Back
TTITLE1=Freestyle (feat. Stack Bundles and A-Team)
TTITLE2=Joe Budden, A-Team and Stack Bundles Freestyle
TTITLE3=Cut 2nite
TTITLE4=Oh My God (feat. Fabolous and Paul Cain)
TTITLE5=Through The Wire
TTITLE6=Find A Way
TTITLE7=Bullshit Rappers and Metaphors
TTITLE8=Fight Muzik
TTITLE9=The Pump
TTITLE10=Where I'm From
TTITLE11=Def Jam Diss
TTITLE12=Only Girl
TTITLE13=Sing For The Moment
TTITLE14=So Lonely
TTITLE15=Last Real Nigga Alive
TTITLE16=The Truth
TTITLE17=Freestyle
TTITLE18=This Is For
TTITLE19=Rest In Peace
TTITLE20=Walk With Me
TTITLE21=Calm Down
TTITLE22=Heaven or Hell
EXTD=
EXTT0=
EXTT1=
EXTT2=
EXTT3=
EXTT4=
EXTT5=
EXTT6=
EXTT7=
EXTT8=
EXTT9=
EXTT10=
EXTT11=
EXTT12=
EXTT13=
EXTT14=
EXTT15=
EXTT16=
EXTT17=
EXTT18=
EXTT19=
EXTT20=
EXTT21=
EXTT22=
PLAYORDER=
